<svg class="animated" id="freepik_stories-calculator" xmlns="http://www.w3.org/2000/svg" viewBox="0 0 500 500" version="1.1" xmlns:xlink="http://www.w3.org/1999/xlink" xmlns:svgjs="http://svgjs.com/svgjs"><style>svg#freepik_stories-calculator:not(.animated) .animable {opacity: 0;}svg#freepik_stories-calculator.animated #freepik--Calculator--inject-131 {animation: 3s Infinite  linear floating;animation-delay: 0s;}            @keyframes floating {                0% {                    opacity: 1;                    transform: translateY(0px);                }                50% {                    transform: translateY(-10px);                }                100% {                    opacity: 1;                    transform: translateY(0px);                }            }        </style><g id="freepik--background-complete--inject-131" class="animable" style="transform-origin: 250px 226.87px;"><rect y="382.4" width="500" height="0.25" style="fill: rgb(235, 235, 235); transform-origin: 250px 382.525px;" id="elft02slhx84" class="animable"></rect><rect x="416.78" y="398.49" width="33.12" height="0.25" style="fill: rgb(235, 235, 235); transform-origin: 433.34px 398.615px;" id="elgffbai3q1qb" class="animable"></rect><rect x="333.38" y="398.49" width="70.81" height="0.25" style="fill: rgb(235, 235, 235); transform-origin: 368.785px 398.615px;" id="elzfa1plolurc" class="animable"></rect><rect x="275.14" y="389.21" width="19.19" height="0.25" style="fill: rgb(235, 235, 235); transform-origin: 284.735px 389.335px;" id="els2drymk0uf9" class="animable"></rect><rect x="52.46" y="390.89" width="34.29" height="0.25" style="fill: rgb(235, 235, 235); transform-origin: 69.605px 391.015px;" id="elioc1wy2ki8" class="animable"></rect><rect x="95.65" y="390.89" width="62.35" height="0.25" style="fill: rgb(235, 235, 235); transform-origin: 126.825px 391.015px;" id="ellgztvpq0fz" class="animable"></rect><rect x="188.33" y="395.11" width="36.81" height="0.25" style="fill: rgb(235, 235, 235); transform-origin: 206.735px 395.235px;" id="elm7r6q4zbsue" class="animable"></rect><path d="M237,337.8H43.91a5.71,5.71,0,0,1-5.7-5.71V60.66A5.71,5.71,0,0,1,43.91,55H237a5.71,5.71,0,0,1,5.71,5.71V332.09A5.71,5.71,0,0,1,237,337.8ZM43.91,55.2a5.46,5.46,0,0,0-5.45,5.46V332.09a5.46,5.46,0,0,0,5.45,5.46H237a5.47,5.47,0,0,0,5.46-5.46V60.66A5.47,5.47,0,0,0,237,55.2Z" style="fill: rgb(235, 235, 235); transform-origin: 140.46px 196.4px;" id="elxbtgzno2mv" class="animable"></path><path d="M453.31,337.8H260.21a5.72,5.72,0,0,1-5.71-5.71V60.66A5.72,5.72,0,0,1,260.21,55h193.1A5.71,5.71,0,0,1,459,60.66V332.09A5.71,5.71,0,0,1,453.31,337.8ZM260.21,55.2a5.47,5.47,0,0,0-5.46,5.46V332.09a5.47,5.47,0,0,0,5.46,5.46h193.1a5.47,5.47,0,0,0,5.46-5.46V60.66a5.47,5.47,0,0,0-5.46-5.46Z" style="fill: rgb(235, 235, 235); transform-origin: 356.75px 196.4px;" id="elclwo4dsvces" class="animable"></path><g id="elq2n6uq93sh"><rect x="337" y="242.22" width="18.51" height="134.57" style="fill: rgb(240, 240, 240); transform-origin: 346.255px 309.505px; transform: rotate(180deg);" class="animable"></rect></g><g id="elrc1ofp04s1r"><rect x="148.05" y="376.79" width="203.9" height="5.61" style="fill: rgb(240, 240, 240); transform-origin: 250px 379.595px; transform: rotate(180deg);" class="animable"></rect></g><rect x="144.49" y="242.22" width="192.5" height="134.57" style="fill: rgb(245, 245, 245); transform-origin: 240.74px 309.505px;" id="els8sumluxtpd" class="animable"></rect><g id="elxcghbo61bis"><rect x="337" y="237.32" width="18.51" height="4.9" style="fill: rgb(230, 230, 230); transform-origin: 346.255px 239.77px; transform: rotate(180deg);" class="animable"></rect></g><rect x="144.49" y="237.32" width="192.5" height="4.9" style="fill: rgb(240, 240, 240); transform-origin: 240.74px 239.77px;" id="eldrt0zjmluw" class="animable"></rect><path d="M330.34,282.8H151.15V252.5H330.34Zm-177.95-1.25H329.1v-27.8H152.39Z" style="fill: rgb(224, 224, 224); transform-origin: 240.745px 267.65px;" id="ell7e5ake1sic" class="animable"></path><path d="M330.34,366.5H151.15V290.23H330.34Zm-177.95-1.24H329.1V291.47H152.39Z" style="fill: rgb(224, 224, 224); transform-origin: 240.745px 328.365px;" id="el470nbws0d1c" class="animable"></path><g id="elw2lfsi71pv8"><rect x="175.29" y="253.12" width="130.91" height="3.98" style="fill: rgb(224, 224, 224); transform-origin: 240.745px 255.11px; transform: rotate(180deg);" class="animable"></rect></g><g id="elodx4chfhmlc"><rect x="175.29" y="290.85" width="130.91" height="3.98" style="fill: rgb(224, 224, 224); transform-origin: 240.745px 292.84px; transform: rotate(180deg);" class="animable"></rect></g><path d="M420.9,378.83h0a1.49,1.49,0,0,1-1.48-1.49V146.26a1.48,1.48,0,0,1,1.48-1.48h0a1.48,1.48,0,0,1,1.48,1.48V377.34A1.49,1.49,0,0,1,420.9,378.83Z" style="fill: rgb(245, 245, 245); transform-origin: 420.9px 261.805px;" id="elsnjhj9t7sio" class="animable"></path><path d="M417.92,375.25h6a4.06,4.06,0,0,1,4.06,4.06v3.08a0,0,0,0,1,0,0H413.86a0,0,0,0,1,0,0v-3.08A4.06,4.06,0,0,1,417.92,375.25Z" style="fill: rgb(240, 240, 240); transform-origin: 420.92px 378.82px;" id="el0ek55rx9woq" class="animable"></path><path d="M392.14,177s.73-28.28,28.76-28.28S449.67,177,449.67,177Z" style="fill: rgb(224, 224, 224); transform-origin: 420.905px 162.86px;" id="elywm12ak751" class="animable"></path><path d="M79.1,378.83h0a1.49,1.49,0,0,1-1.49-1.49V146.26a1.49,1.49,0,0,1,1.49-1.48h0a1.48,1.48,0,0,1,1.48,1.48V377.34A1.49,1.49,0,0,1,79.1,378.83Z" style="fill: rgb(245, 245, 245); transform-origin: 79.095px 261.805px;" id="el698vm7q4vb5" class="animable"></path><path d="M76.12,375.25h6a4.06,4.06,0,0,1,4.06,4.06v3.08a0,0,0,0,1,0,0H72.06a0,0,0,0,1,0,0v-3.08A4.06,4.06,0,0,1,76.12,375.25Z" style="fill: rgb(240, 240, 240); transform-origin: 79.12px 378.82px;" id="elievyfgm2maf" class="animable"></path><path d="M50.33,177s.73-28.28,28.77-28.28S107.86,177,107.86,177Z" style="fill: rgb(224, 224, 224); transform-origin: 79.095px 162.86px;" id="eli0fb9aktyqp" class="animable"></path><rect x="214.91" y="235.2" width="71.14" height="2.12" style="fill: rgb(224, 224, 224); transform-origin: 250.48px 236.26px;" id="el8n3860sufvf" class="animable"></rect><polygon points="286.05 235.2 214.91 235.2 221.75 194.47 292.89 194.47 286.05 235.2" style="fill: rgb(224, 224, 224); transform-origin: 253.9px 214.835px;" id="elludvesu77im" class="animable"></polygon><polygon points="284.73 235.2 213.59 235.2 220.43 194.47 291.57 194.47 284.73 235.2" style="fill: rgb(235, 235, 235); transform-origin: 252.58px 214.835px;" id="el4gekta6xywf" class="animable"></polygon><path d="M216.29,232l5.82-34.63a.9.9,0,0,1,.9-.76h65a.91.91,0,0,1,.9,1.06l-5.82,34.63a.92.92,0,0,1-.9.77h-65A.91.91,0,0,1,216.29,232Z" style="fill: rgb(250, 250, 250); transform-origin: 252.599px 214.84px;" id="ell9ysg7i7iks" class="animable"></path><rect x="198.81" y="235.2" width="71.14" height="2.12" style="fill: rgb(240, 240, 240); transform-origin: 234.38px 236.26px;" id="elmbfbt2shtk" class="animable"></rect><rect x="154.41" y="87.76" width="188.48" height="60.92" style="fill: rgb(235, 235, 235); transform-origin: 248.65px 118.22px;" id="ela4270oyyfu" class="animable"></rect><g id="el62sazu5ilst"><rect x="342.89" y="87.76" width="2.7" height="60.92" style="fill: rgb(224, 224, 224); transform-origin: 344.24px 118.22px; transform: rotate(180deg);" class="animable"></rect></g><rect x="162.66" y="96.01" width="171.97" height="44.41" style="fill: rgb(255, 255, 255); transform-origin: 248.645px 118.215px;" id="elfp2wspa0088" class="animable"></rect><g id="el1ebof5nozhg"><rect x="241.33" y="110.9" width="14.64" height="14.64" style="fill: rgb(245, 245, 245); transform-origin: 248.65px 118.22px; transform: rotate(45deg);" class="animable"></rect></g><g id="el9kfvwmt1rko"><rect x="213.54" y="110.9" width="14.64" height="14.64" style="fill: rgb(245, 245, 245); transform-origin: 220.86px 118.22px; transform: rotate(45deg);" class="animable"></rect></g><g id="eliz0hc6ykia"><rect x="185.75" y="110.9" width="14.64" height="14.64" style="fill: rgb(245, 245, 245); transform-origin: 193.07px 118.22px; transform: rotate(45deg);" class="animable"></rect></g><g id="el4kjdvy50117"><rect x="269.12" y="110.9" width="14.64" height="14.64" style="fill: rgb(245, 245, 245); transform-origin: 276.44px 118.22px; transform: rotate(45deg);" class="animable"></rect></g><g id="elaor0l0ll68w"><rect x="296.91" y="110.9" width="14.64" height="14.64" style="fill: rgb(245, 245, 245); transform-origin: 304.23px 118.22px; transform: rotate(45deg);" class="animable"></rect></g></g><g id="freepik--Shadow--inject-131" class="animable" style="transform-origin: 250px 416.24px;"><ellipse id="freepik--path--inject-131" cx="250" cy="416.24" rx="193.89" ry="11.32" style="fill: rgb(245, 245, 245); transform-origin: 250px 416.24px;" class="animable"></ellipse></g><g id="freepik--Calculator--inject-131" class="animable" style="transform-origin: 270.648px 218.976px;"><path d="M362.94,123.05a8.34,8.34,0,0,0-8.42-9H216.09a9.78,9.78,0,0,0-9.61,9L203.3,171,183.37,318.41a7.69,7.69,0,0,0,7.79,9H329.6a10.64,10.64,0,0,0,10.23-9L359.76,171Z" style="fill: rgb(64, 123, 255); transform-origin: 273.112px 220.731px;" id="eljgsdqqitl6" class="animable"></path><g id="el53z7i3ef1kq"><path d="M362.94,123.05a8.34,8.34,0,0,0-8.42-9H216.09a9.78,9.78,0,0,0-9.61,9L203.3,171,183.37,318.41a7.69,7.69,0,0,0,7.79,9H329.6a10.64,10.64,0,0,0,10.23-9L359.76,171Z" style="opacity: 0.2; transform-origin: 273.112px 220.731px;" class="animable"></path></g><path d="M324.67,327.42H186.23a7.7,7.7,0,0,1-7.79-9L198.37,171H354.83L334.9,318.41A10.64,10.64,0,0,1,324.67,327.42Z" style="fill: rgb(64, 123, 255); transform-origin: 266.58px 249.211px;" id="el6co35k8yw1j" class="animable"></path><rect x="216.05" y="110.53" width="20.62" height="1" style="fill: rgb(64, 123, 255); transform-origin: 226.36px 111.03px;" id="elo2n0puvxj" class="animable"></rect><path d="M206.3,112.6l-.42-.91a12.64,12.64,0,0,1,5.28-1.16v1A11.61,11.61,0,0,0,206.3,112.6Z" style="fill: rgb(64, 123, 255); transform-origin: 208.52px 111.565px;" id="el5th3xl7axag" class="animable"></path><path d="M349.6,114H211.16a9.78,9.78,0,0,0-9.61,9L198.37,171H354.83L358,123.05A8.33,8.33,0,0,0,349.6,114Z" style="fill: rgb(64, 123, 255); transform-origin: 278.201px 142.5px;" id="el0msk812xq5no" class="animable"></path><g id="elwfko8gv94b"><path d="M206.1,159.26l2.22-33.53a5.15,5.15,0,0,1,5.06-4.74H346.45a4.38,4.38,0,0,1,4.43,4.74l-2.22,33.53A5.16,5.16,0,0,1,343.6,164H210.53A4.39,4.39,0,0,1,206.1,159.26Z" style="fill: rgb(255, 255, 255); opacity: 0.9; transform-origin: 278.49px 142.495px;" class="animable"></path></g><g id="eli5giuurmao"><g style="opacity: 0.4; transform-origin: 330.75px 139.125px;" class="animable"><path d="M336.86,126.48l-1.51,1.41a.39.39,0,0,1-.28.11h-8a.39.39,0,0,1-.3-.13l-1.3-1.4a.41.41,0,0,1,.3-.69h10.83A.4.4,0,0,1,336.86,126.48Z" style="fill: rgb(64, 123, 255); transform-origin: 331.177px 126.89px;" id="elkwloafis9ec" class="animable"></path><path d="M334.74,152.47H323.91a.41.41,0,0,1-.28-.71l1.5-1.4a.43.43,0,0,1,.28-.11h8a.37.37,0,0,1,.3.14l1.31,1.4A.41.41,0,0,1,334.74,152.47Z" style="fill: rgb(64, 123, 255); transform-origin: 329.311px 151.36px;" id="eljvy1myaox3" class="animable"></path><path d="M335.79,139.4l-.77.73a.43.43,0,0,1-.28.11h-9.39a.41.41,0,0,1-.4-.44l.1-1.41a.41.41,0,0,1,.41-.38h9.42a.4.4,0,0,1,.3.13l.64.69A.4.4,0,0,1,335.79,139.4Z" style="fill: rgb(64, 123, 255); transform-origin: 330.437px 139.125px;" id="elk8fkhk34ijo" class="animable"></path><path d="M337.07,140.17,336.28,151a.41.41,0,0,1-.71.24l-1.29-1.4a.41.41,0,0,1-.11-.31l.59-8.05a.37.37,0,0,1,.13-.27l1.5-1.4A.41.41,0,0,1,337.07,140.17Z" style="fill: rgb(64, 123, 255); transform-origin: 335.621px 145.539px;" id="elt5buzu4rk2" class="animable"></path><path d="M338,127.32l-.79,10.86a.41.41,0,0,1-.71.25l-1.3-1.41a.41.41,0,0,1-.1-.3l.58-8.05a.43.43,0,0,1,.13-.27l1.5-1.41A.41.41,0,0,1,338,127.32Z" style="fill: rgb(64, 123, 255); transform-origin: 336.55px 132.72px;" id="el6nhcjm8d4b" class="animable"></path></g></g><g id="elt7wu1ozd8ig"><path d="M319.52,157h0a1.52,1.52,0,0,1,1.48-1.39h17a1.44,1.44,0,0,1,1.45,1.54h0a1.52,1.52,0,0,1-1.49,1.39H321A1.42,1.42,0,0,1,319.52,157Z" style="fill: rgb(64, 123, 255); opacity: 0.4; transform-origin: 329.484px 157.076px;" class="animable"></path></g><g id="elt0mdzn70awo"><path d="M298.26,157h0a1.52,1.52,0,0,1,1.48-1.39h17a1.44,1.44,0,0,1,1.45,1.54h0a1.52,1.52,0,0,1-1.49,1.39h-17A1.42,1.42,0,0,1,298.26,157Z" style="fill: rgb(64, 123, 255); opacity: 0.4; transform-origin: 308.224px 157.075px;" class="animable"></path></g><g id="elzfi81ev8mlm"><path d="M277,157h0a1.52,1.52,0,0,1,1.48-1.39h17a1.44,1.44,0,0,1,1.44,1.54h0a1.51,1.51,0,0,1-1.49,1.39h-17A1.42,1.42,0,0,1,277,157Z" style="fill: rgb(64, 123, 255); opacity: 0.4; transform-origin: 286.959px 157.075px;" class="animable"></path></g><g id="elpik8dzywgao"><path d="M255.74,157h0a1.52,1.52,0,0,1,1.48-1.39h17a1.44,1.44,0,0,1,1.44,1.54h0a1.51,1.51,0,0,1-1.49,1.39h-17A1.42,1.42,0,0,1,255.74,157Z" style="fill: rgb(64, 123, 255); opacity: 0.4; transform-origin: 265.699px 157.075px;" class="animable"></path></g><g id="el2vs3db9yavd"><path d="M208.79,239.37l6.26-46.27a6.55,6.55,0,0,1,6.3-5.55h46.27a4.74,4.74,0,0,1,4.8,5.55l-6.26,46.27a6.54,6.54,0,0,1-6.29,5.55H213.59A4.74,4.74,0,0,1,208.79,239.37Z" style="fill: rgb(38, 50, 56); opacity: 0.1; transform-origin: 240.605px 216.235px;" class="animable"></path></g><g id="el1i5facxtgz2"><path d="M274.71,239.37,281,193.1a6.55,6.55,0,0,1,6.3-5.55h46.27a4.73,4.73,0,0,1,4.8,5.55l-6.25,46.27a6.56,6.56,0,0,1-6.3,5.55H279.5A4.73,4.73,0,0,1,274.71,239.37Z" style="fill: rgb(38, 50, 56); opacity: 0.1; transform-origin: 306.54px 216.235px;" class="animable"></path></g><g id="elovn5x8wfki"><path d="M199.88,305.29,206.14,259a6.56,6.56,0,0,1,6.3-5.55h46.27a4.74,4.74,0,0,1,4.8,5.55l-6.26,46.28a6.54,6.54,0,0,1-6.29,5.54H204.68A4.74,4.74,0,0,1,199.88,305.29Z" style="fill: rgb(38, 50, 56); opacity: 0.1; transform-origin: 231.697px 282.135px;" class="animable"></path></g><g id="elhesccdvlioc"><path d="M265.8,305.29,272.05,259a6.56,6.56,0,0,1,6.3-5.55h46.27a4.74,4.74,0,0,1,4.8,5.55l-6.25,46.28a6.56,6.56,0,0,1-6.3,5.54H270.59A4.73,4.73,0,0,1,265.8,305.29Z" style="fill: rgb(38, 50, 56); opacity: 0.1; transform-origin: 297.611px 282.135px;" class="animable"></path></g><path d="M205.71,239.37,212,193.1a6.55,6.55,0,0,1,6.3-5.55h46.27a4.74,4.74,0,0,1,4.8,5.55l-6.26,46.27a6.54,6.54,0,0,1-6.29,5.55H210.51A4.74,4.74,0,0,1,205.71,239.37Z" style="fill: rgb(64, 123, 255); transform-origin: 237.54px 216.235px;" id="elqqpd3qtiz3" class="animable"></path><g id="el2lodwdcjceq"><path d="M205.71,239.37,212,193.1a6.55,6.55,0,0,1,6.3-5.55h46.27a4.74,4.74,0,0,1,4.8,5.55l-6.26,46.27a6.54,6.54,0,0,1-6.29,5.55H210.51A4.74,4.74,0,0,1,205.71,239.37Z" style="fill: rgb(255, 255, 255); opacity: 0.2; transform-origin: 237.54px 216.235px;" class="animable"></path></g><path d="M271.63,239.37l6.25-46.27a6.55,6.55,0,0,1,6.3-5.55h46.27a4.73,4.73,0,0,1,4.8,5.55L329,239.37a6.56,6.56,0,0,1-6.3,5.55H276.42A4.73,4.73,0,0,1,271.63,239.37Z" style="fill: rgb(64, 123, 255); transform-origin: 303.44px 216.235px;" id="eleqlr5i0jgb" class="animable"></path><g id="eldlq6vb3rwp"><path d="M271.63,239.37l6.25-46.27a6.55,6.55,0,0,1,6.3-5.55h46.27a4.73,4.73,0,0,1,4.8,5.55L329,239.37a6.56,6.56,0,0,1-6.3,5.55H276.42A4.73,4.73,0,0,1,271.63,239.37Z" style="fill: rgb(255, 255, 255); opacity: 0.2; transform-origin: 303.44px 216.235px;" class="animable"></path></g><path d="M196.8,305.29,203.06,259a6.56,6.56,0,0,1,6.3-5.55h46.27a4.74,4.74,0,0,1,4.8,5.55l-6.26,46.28a6.54,6.54,0,0,1-6.29,5.54H201.6A4.74,4.74,0,0,1,196.8,305.29Z" style="fill: rgb(64, 123, 255); transform-origin: 228.617px 282.135px;" id="ele1p29vscolf" class="animable"></path><g id="elsddablxo61j"><path d="M196.8,305.29,203.06,259a6.56,6.56,0,0,1,6.3-5.55h46.27a4.74,4.74,0,0,1,4.8,5.55l-6.26,46.28a6.54,6.54,0,0,1-6.29,5.54H201.6A4.74,4.74,0,0,1,196.8,305.29Z" style="fill: rgb(255, 255, 255); opacity: 0.2; transform-origin: 228.617px 282.135px;" class="animable"></path></g><path d="M262.72,305.29,269,259a6.56,6.56,0,0,1,6.3-5.55h46.27a4.74,4.74,0,0,1,4.8,5.55l-6.25,46.28a6.56,6.56,0,0,1-6.3,5.54H267.51A4.73,4.73,0,0,1,262.72,305.29Z" style="fill: rgb(64, 123, 255); transform-origin: 294.546px 282.135px;" id="elpomkkq9236f" class="animable"></path><g id="elh1blijtxhv"><path d="M262.72,305.29,269,259a6.56,6.56,0,0,1,6.3-5.55h46.27a4.74,4.74,0,0,1,4.8,5.55l-6.25,46.28a6.56,6.56,0,0,1-6.3,5.54H267.51A4.73,4.73,0,0,1,262.72,305.29Z" style="fill: rgb(255, 255, 255); opacity: 0.2; transform-origin: 294.546px 282.135px;" class="animable"></path></g><path d="M234.92,235.49h0a4.76,4.76,0,0,1-4.8-5.55l3.71-27.4a6.58,6.58,0,0,1,6.3-5.56h0a4.75,4.75,0,0,1,4.8,5.56l-3.7,27.4A6.58,6.58,0,0,1,234.92,235.49Z" style="fill: rgb(255, 255, 255); transform-origin: 237.527px 216.235px;" id="elymogjv7oqa" class="animable"></path><path d="M218.27,216.24h0a6.59,6.59,0,0,1,6.31-5.56H252a4.76,4.76,0,0,1,4.8,5.56h0a6.58,6.58,0,0,1-6.3,5.55h-27.4A4.76,4.76,0,0,1,218.27,216.24Z" style="fill: rgb(255, 255, 255); transform-origin: 237.536px 216.235px;" id="elx7a924zuj6" class="animable"></path><path d="M213.16,295.76h0c-1.87-2.16-1.39-5.69,1.06-7.85l22-19.38c2.45-2.16,6-2.16,7.85,0h0c1.87,2.16,1.39,5.7-1.06,7.86l-22,19.37C218.56,297.92,215,297.92,213.16,295.76Z" style="fill: rgb(255, 255, 255); transform-origin: 228.615px 282.145px;" id="elbdfdq9nj5ts" class="animable"></path><path d="M216.84,268.53h0c2.45-2.16,6-2.16,7.86,0l16.75,19.38c1.87,2.16,1.39,5.69-1.06,7.85h0c-2.45,2.16-6,2.16-7.85,0l-16.76-19.37C213.91,274.23,214.39,270.69,216.84,268.53Z" style="fill: rgb(255, 255, 255); transform-origin: 228.615px 282.145px;" id="el2uuhnz6d3hr" class="animable"></path><path d="M284.18,216.24h0a6.59,6.59,0,0,1,6.31-5.56h27.4a4.75,4.75,0,0,1,4.8,5.56h0a6.58,6.58,0,0,1-6.3,5.55H289A4.76,4.76,0,0,1,284.18,216.24Z" style="fill: rgb(255, 255, 255); transform-origin: 303.437px 216.235px;" id="ele9txb3httgb" class="animable"></path><path d="M276.44,273.51h0a6.58,6.58,0,0,1,6.31-5.55h27.4a4.76,4.76,0,0,1,4.8,5.55h0a6.58,6.58,0,0,1-6.3,5.56H281.24A4.76,4.76,0,0,1,276.44,273.51Z" style="fill: rgb(255, 255, 255); transform-origin: 295.694px 273.515px;" id="eljl5fxnxiice" class="animable"></path><path d="M274.11,290.78h0a6.58,6.58,0,0,1,6.3-5.55h27.4a4.76,4.76,0,0,1,4.81,5.55h0a6.59,6.59,0,0,1-6.31,5.56h-27.4A4.75,4.75,0,0,1,274.11,290.78Z" style="fill: rgb(255, 255, 255); transform-origin: 293.363px 290.785px;" id="elof3119dyuym" class="animable"></path></g><g id="freepik--Character--inject-131" class="animable" style="transform-origin: 157.591px 271.025px;"><path d="M133.36,179.7c-1.8,3.34-3.65,6.94-5.34,10.46s-3.32,7.11-4.72,10.7c-.37.9-.67,1.8-1,2.7A4.68,4.68,0,0,0,122,205a10,10,0,0,0,.77,4.14,38.63,38.63,0,0,0,5.65,9.34l-3.41,4a29.63,29.63,0,0,1-2.74-2,29.17,29.17,0,0,1-2.51-2.21,27.88,27.88,0,0,1-4.39-5.42,17.72,17.72,0,0,1-2.62-7.52,13.37,13.37,0,0,1,.37-4.59c.28-1,.54-2.1.86-3.13a102.51,102.51,0,0,1,4.43-12c.86-1.93,1.74-3.84,2.71-5.72s1.9-3.7,3.06-5.62Z" style="fill: rgb(255, 139, 123); transform-origin: 123.026px 198.375px;" id="elxmy81e38iy" class="animable"></path><path d="M127,217.33l5,1.32-3.72,7.23s-3.72-1.42-4.64-4.69Z" style="fill: rgb(255, 139, 123); transform-origin: 127.82px 221.605px;" id="elmgrkd9vtsw" class="animable"></path><polygon points="138.9 220.93 134.42 226.6 128.29 225.88 132.01 218.65 138.9 220.93" style="fill: rgb(255, 139, 123); transform-origin: 133.595px 222.625px;" id="eltu66oceuknd" class="animable"></polygon><path d="M156.94,141.56c.11.56.5.95.86.88s.57-.59.45-1.14-.5-1-.86-.88S156.82,141,156.94,141.56Z" style="fill: rgb(38, 50, 56); transform-origin: 157.595px 141.424px;" id="el9x0wvug32c5" class="animable"></path><path d="M157.39,142.52a20.26,20.26,0,0,0,3.62,4.22,3.29,3.29,0,0,1-2.56,1Z" style="fill: rgb(255, 86, 82); transform-origin: 159.2px 145.133px;" id="el5frqwjznc96" class="animable"></path><path d="M158.14,146.3c-1.63,0-3.25-1.78-3.74-4.22a6.38,6.38,0,0,1,.23-3.58,2.57,2.57,0,0,1,4.55-.93,6.86,6.86,0,0,1,1.38,6.79,2.83,2.83,0,0,1-2,1.9A2.18,2.18,0,0,1,158.14,146.3Zm-1.08-9.49a1.81,1.81,0,0,0-.4,0,2.59,2.59,0,0,0-1.8,1.74,6.17,6.17,0,0,0-.22,3.44c.51,2.53,2.25,4.32,3.89,4a2.56,2.56,0,0,0,1.8-1.74,6.61,6.61,0,0,0-1.32-6.52A2.79,2.79,0,0,0,157.06,136.81Z" style="fill: rgb(38, 50, 56); transform-origin: 157.586px 141.422px;" id="el8mh5azdj8cc" class="animable"></path><path d="M209.64,199.2l6.41-1.36.83,8.7s-5.54,1.06-8.19-3.32Z" style="fill: rgb(255, 139, 123); transform-origin: 212.785px 202.246px;" id="el7vien7gaoq7" class="animable"></path><polygon points="222.11 199.79 221.7 206.14 216.88 206.54 216.05 197.84 222.11 199.79" style="fill: rgb(255, 139, 123); transform-origin: 219.08px 202.19px;" id="elzrvuj7upkua" class="animable"></polygon><path d="M154.27,138.89a.31.31,0,0,1-.22-.09.32.32,0,0,1,0-.47,3.31,3.31,0,0,1,2.83-1.1.33.33,0,0,1,.28.38.35.35,0,0,1-.39.28h0a2.61,2.61,0,0,0-2.23.89A.36.36,0,0,1,154.27,138.89Z" style="fill: rgb(38, 50, 56); transform-origin: 155.556px 138.051px;" id="el2unfetlsc1a" class="animable"></path><path d="M141.5,151.68c1,5.15,1.62,12.28-2,15.71,0,0,1.4,5.22,11,5.22,10.52,0,5.06-4.58,5.06-4.58-4.37-1.36-4.33-6.33-3.33-10.33Z" style="fill: rgb(255, 139, 123); transform-origin: 148.238px 162.145px;" id="elm6dhp7ui7o" class="animable"></path><path d="M152.3,166.14c2.36-1.7,5.85-3.69,6.58-1.61.44,1.25.62,7.36-1.81,6.9C153.48,170.76,152.3,166.14,152.3,166.14Z" style="fill: rgb(38, 50, 56); transform-origin: 155.723px 167.547px;" id="elmb6pnpnzbgn" class="animable"></path><path d="M137.55,170.83c-.94-1.32-.9-5.51.1-6.25,1.61-1.19,8.51-1.47,17.81.67-1,4.06,1.15,6.19,1.15,6.19Z" style="fill: rgb(64, 123, 255); transform-origin: 146.741px 167.551px;" id="el28umzq5linv" class="animable"></path><path d="M106.29,408.24a2.27,2.27,0,0,0,1.75-.1.65.65,0,0,0,.16-.77.73.73,0,0,0-.42-.49c-1-.46-3.14.43-3.23.47a.16.16,0,0,0-.1.15.17.17,0,0,0,.09.16A9.56,9.56,0,0,0,106.29,408.24Zm1.15-1.13.19.07a.45.45,0,0,1,.26.28c.09.3,0,.4-.06.43-.38.32-1.79,0-2.77-.37A5.49,5.49,0,0,1,107.44,407.11Z" style="fill: rgb(64, 123, 255); transform-origin: 106.356px 407.559px;" id="eldgfyaake0ua" class="animable"></path><path d="M104.58,407.67h.08c.8-.24,2.5-1.45,2.52-2.24a.55.55,0,0,0-.43-.54.88.88,0,0,0-.74.06c-.94.48-1.53,2.42-1.55,2.51a.17.17,0,0,0,.12.21Zm2-2.49.07,0c.21.07.21.17.21.22,0,.47-1.14,1.42-2,1.8a4,4,0,0,1,1.28-2A.57.57,0,0,1,106.57,405.18Z" style="fill: rgb(64, 123, 255); transform-origin: 105.817px 406.253px;" id="el145jd1rhezk" class="animable"></path><path d="M158.22,409.42c.91,0,1.78-.13,2.07-.53a.65.65,0,0,0,0-.73.83.83,0,0,0-.53-.39c-1.17-.32-3.63,1.08-3.73,1.14a.18.18,0,0,0-.09.17.18.18,0,0,0,.14.14A12.07,12.07,0,0,0,158.22,409.42Zm1.12-1.37a1.55,1.55,0,0,1,.32,0,.54.54,0,0,1,.33.23c.12.21.07.31,0,.37-.33.46-2.11.47-3.41.28A7.61,7.61,0,0,1,159.34,408.05Z" style="fill: rgb(64, 123, 255); transform-origin: 158.171px 408.571px;" id="eloqn5o6zwalg" class="animable"></path><path d="M156.1,409.22h.07c.85-.38,2.53-1.9,2.4-2.7,0-.19-.16-.42-.62-.46a1.23,1.23,0,0,0-.93.28,4.82,4.82,0,0,0-1.09,2.71.17.17,0,0,0,.17.18Zm1.71-2.85h.1c.3,0,.32.14.33.18.08.48-1.07,1.68-1.93,2.2a3.87,3.87,0,0,1,.93-2.17A.83.83,0,0,1,157.81,406.37Z" style="fill: rgb(64, 123, 255); transform-origin: 157.253px 407.641px;" id="elnwoz3p5odkh" class="animable"></path><polygon points="148.36 409.06 155.4 409.06 156.1 392.77 149.06 392.77 148.36 409.06" style="fill: rgb(255, 139, 123); transform-origin: 152.23px 400.915px;" id="eltb1ypupvqx" class="animable"></polygon><polygon points="96.74 405.8 103.61 407.29 110.52 392.12 103.64 390.63 96.74 405.8" style="fill: rgb(255, 139, 123); transform-origin: 103.63px 398.96px;" id="elaxzvyk3ubx" class="animable"></polygon><path d="M104.27,406.6l-7.72-1.67a.62.62,0,0,0-.69.34l-2.68,5.82a1,1,0,0,0,.74,1.44c2.71.53,4.06.66,7.45,1.39,2.09.46,6.81,1.61,9.69,2.23s3.88-2.15,2.76-2.66c-5-2.31-7.16-4.34-8.52-6.23A1.71,1.71,0,0,0,104.27,406.6Z" style="fill: rgb(38, 50, 56); transform-origin: 103.67px 410.578px;" id="elsjoo9jl8dk" class="animable"></path><path d="M155.35,408.24h-7.68a.61.61,0,0,0-.6.48L145.68,415a1,1,0,0,0,1,1.26c2.77-.05,6.78-.21,10.26-.21,4.07,0,7.59.22,12.37.22,2.88,0,3.69-2.92,2.48-3.19-5.51-1.2-10-1.33-14.75-4.26A3.27,3.27,0,0,0,155.35,408.24Z" style="fill: rgb(38, 50, 56); transform-origin: 158.989px 412.255px;" id="eleebf7qt0ist" class="animable"></path><path d="M126.92,169c-6.59,1.51-12,18.34-12,18.34l13.24,10.09a28.86,28.86,0,0,0,7-13C137.42,175.59,133.66,167.44,126.92,169Z" style="fill: rgb(64, 123, 255); transform-origin: 125.369px 183.119px;" id="elw08fpr60drl" class="animable"></path><g id="elwv7uttf9nj9"><path d="M126.92,169c-6.59,1.51-12,18.34-12,18.34l13.24,10.09a28.86,28.86,0,0,0,7-13C137.42,175.59,133.66,167.44,126.92,169Z" style="fill: rgb(255, 255, 255); opacity: 0.4; transform-origin: 125.369px 183.119px;" class="animable"></path></g><path d="M166.45,177l11.11,10.22c1.85,1.7,3.7,3.39,5.56,5.05s3.72,3.32,5.51,4.76l-1.55-.83c.86.32,1.76.63,2.71.88s1.93.46,2.94.66a62.2,62.2,0,0,0,6.28.81c2.15.18,4.35.3,6.56.36s4.5.11,6.67.12l1,5.18a52.36,52.36,0,0,1-7,2,59.27,59.27,0,0,1-7.22,1.1,49.1,49.1,0,0,1-7.49.11,35.14,35.14,0,0,1-7.83-1.35l-.75-.22-.79-.61c-2.2-1.69-4.15-3.34-6.11-5s-3.86-3.38-5.76-5.09c-3.78-3.44-7.53-6.86-11.2-10.41Z" style="fill: rgb(255, 139, 123); transform-origin: 186.165px 192.257px;" id="elp6tgo0d0f0r" class="animable"></path><g id="eld8u1t15nb4g"><path d="M132.57,181.36c-3.58,3.54-4.75,10-5,15.6l.59.45a28.93,28.93,0,0,0,7-13c.13-.52.25-1,.34-1.57Z" style="opacity: 0.2; transform-origin: 131.535px 189.385px;" class="animable"></path></g><path d="M168.58,176c1.44,7.6,2.34,23.21-1.84,54.11H129.12c-.26-5.77,3.37-33.95-2.2-61.16a99,99,0,0,1,12.6-1.59,139.73,139.73,0,0,1,16,0c1.76.16,3.49.42,5,.69A10,10,0,0,1,168.58,176Z" style="fill: rgb(64, 123, 255); transform-origin: 148.351px 198.62px;" id="ellt2tnwbjj0d" class="animable"></path><g id="el12flxjbwy89k"><path d="M168.58,176c1.44,7.6,2.34,23.21-1.84,54.11H129.12c-.26-5.77,3.37-33.95-2.2-61.16a99,99,0,0,1,12.6-1.59,139.73,139.73,0,0,1,16,0c1.76.16,3.49.42,5,.69A10,10,0,0,1,168.58,176Z" style="fill: rgb(255, 255, 255); opacity: 0.4; transform-origin: 148.351px 198.62px;" class="animable"></path></g><g id="el6oyi5lufz4c"><path d="M162.82,187.27l6.8-1.63c.21,4.12.23,9.22-.08,15.53C166.41,197.61,162.42,192.05,162.82,187.27Z" style="opacity: 0.2; transform-origin: 166.284px 193.405px;" class="animable"></path></g><g id="ela1zztz3vcn7"><polygon points="156.1 392.77 155.74 401.17 148.7 401.17 149.06 392.77 156.1 392.77" style="opacity: 0.2; transform-origin: 152.4px 396.97px;" class="animable"></polygon></g><g id="el5je0ijjhjll"><polygon points="103.64 390.63 110.52 392.12 106.95 399.94 100.08 398.45 103.64 390.63" style="opacity: 0.2; transform-origin: 105.3px 395.285px;" class="animable"></polygon></g><path d="M138.15,144.16c1.81,6.74,2.53,10.78,6.69,13.58,6.26,4.22,14-.62,14.29-7.77.22-6.43-2.77-16.38-10-17.74A9.53,9.53,0,0,0,138.15,144.16Z" style="fill: rgb(255, 139, 123); transform-origin: 148.469px 145.685px;" id="elwlatr3bslep" class="animable"></path><path d="M153.45,144.67c3.16-.45,2.25-4.1,1.07-5.89,0,0,7-8.45-1.07-11.86s-6.12,1.91-6.12,1.91-6.33-4.75-11.83-.91-.75,5.5-.75,5.5-10,2.94-6,8,8.13,4.55,8.13,4.55-8.29,3.27-2,6.94,8.65,3.83,8.65,3.83h0a7.18,7.18,0,0,0,7.76-5.05Z" style="fill: rgb(38, 50, 56); transform-origin: 142.571px 141.287px;" id="elq7ftjqn19q" class="animable"></path><path d="M150.73,144.69a7.91,7.91,0,0,0,2,4.67c1.53,1.69,3.13.63,3.41-1.42.24-1.86-.26-5-2.14-5.9S150.61,142.6,150.73,144.69Z" style="fill: rgb(255, 139, 123); transform-origin: 153.46px 145.984px;" id="elxa9qvuogzo8" class="animable"></path><path d="M153.4,230.14s-8,53.75-12.37,73.89c-4.8,22.05-30.53,95-30.53,95l-12.59-2.73s18-59.46,22-90.29c3.1-23.68,9.19-75.89,9.19-75.89Z" style="fill: rgb(38, 50, 56); transform-origin: 125.655px 314.575px;" id="el3hx0x1v69e7" class="animable"></path><path d="M113.52,394.84s-2.35,4.56-2.35,4.56L97,396.33l1.2-4.26Z" style="fill: rgb(64, 123, 255); transform-origin: 105.26px 395.735px;" id="elu230c70eotg" class="animable"></path><g id="elfm172ekt1hv"><path d="M148.35,249.29c-9.23,1.81-8.25,36.23-7.14,53.94,2.66-12.52,6.56-36.6,9.22-53.69A3.15,3.15,0,0,0,148.35,249.29Z" style="opacity: 0.3; transform-origin: 145.472px 276.222px;" class="animable"></path></g><path d="M166.74,230.14s1,52.59.21,74c-.8,22.31-8.59,95.36-8.59,95.36H146.44s-.43-71.75-1-93.66C144.9,282,142,230.14,142,230.14Z" style="fill: rgb(38, 50, 56); transform-origin: 154.627px 314.82px;" id="elkiy1rsdx9bd" class="animable"></path><path d="M160.65,394.8c.06,0-.67,4.94-.67,4.94h-14.5l-.39-4.41Z" style="fill: rgb(64, 123, 255); transform-origin: 152.872px 397.27px;" id="elpyajxrjm87l" class="animable"></path><path d="M153.84,178.34c-3.38,9.09,16.44,19.8,16.44,19.8l8.58-11s-5.73-11.39-12.75-16.53C157.43,164.24,156.4,171.42,153.84,178.34Z" style="fill: rgb(64, 123, 255); transform-origin: 166.156px 183.141px;" id="elq6id0beay9" class="animable"></path><g id="el5ngu1prxgup"><path d="M153.84,178.34c-3.38,9.09,16.44,19.8,16.44,19.8l8.58-11s-5.73-11.39-12.75-16.53C157.43,164.24,156.4,171.42,153.84,178.34Z" style="fill: rgb(255, 255, 255); opacity: 0.4; transform-origin: 166.156px 183.141px;" class="animable"></path></g><ellipse cx="210.76" cy="200.1" rx="2.46" ry="1.85" style="fill: rgb(38, 50, 56); transform-origin: 210.76px 200.1px;" id="elayobvteye4" class="animable"></ellipse><path d="M209.81,206a.5.5,0,0,1-.39-.18.5.5,0,0,1,.06-.7c.06-.05,1.34-1.22.79-3.94a.49.49,0,0,1,.39-.58.5.5,0,0,1,.59.39c.68,3.33-1.05,4.83-1.12,4.89A.51.51,0,0,1,209.81,206Z" style="fill: rgb(38, 50, 56); transform-origin: 210.356px 203.295px;" id="elyjc7xqtzz1j" class="animable"></path><g id="elkj7wyzhmag"><path d="M212.76,200c0,.76-.89,1.37-2,1.37s-2-.61-2-1.37.89-1.36,2-1.36S212.76,199.21,212.76,200Z" style="fill: rgb(255, 255, 255); opacity: 0.4; transform-origin: 210.76px 200.005px;" class="animable"></path></g><path d="M156.94,167.47c-4.6,3.29-12.57,16-14,23.51a.25.25,0,0,1-.46.08,51.26,51.26,0,0,1-7.51-23.26.25.25,0,0,0-.27-.23,30.35,30.35,0,0,0-3.34.41.26.26,0,0,0-.19.25,50.79,50.79,0,0,0,10.52,28.37.18.18,0,0,1,0,.16c-.61,11.25.2,31.36.3,33.75a.25.25,0,0,0,.25.24h3a.25.25,0,0,0,.25-.26c-.14-2.3-1.08-19.77,0-34.1v0c1.69-10.66,11.8-25.07,15.35-27.92a.24.24,0,0,0-.11-.43c-1.5-.33-3.22-.54-3.63-.58A.25.25,0,0,0,156.94,167.47Z" style="fill: rgb(64, 123, 255); transform-origin: 146.053px 199.101px;" id="elbr3u3vds7a" class="animable"></path></g><defs>     <filter id="active" height="200%">         <feMorphology in="SourceAlpha" result="DILATED" operator="dilate" radius="2"></feMorphology>                <feFlood flood-color="#32DFEC" flood-opacity="1" result="PINK"></feFlood>        <feComposite in="PINK" in2="DILATED" operator="in" result="OUTLINE"></feComposite>        <feMerge>            <feMergeNode in="OUTLINE"></feMergeNode>            <feMergeNode in="SourceGraphic"></feMergeNode>        </feMerge>    </filter>    <filter id="hover" height="200%">        <feMorphology in="SourceAlpha" result="DILATED" operator="dilate" radius="2"></feMorphology>                <feFlood flood-color="#ff0000" flood-opacity="0.5" result="PINK"></feFlood>        <feComposite in="PINK" in2="DILATED" operator="in" result="OUTLINE"></feComposite>        <feMerge>            <feMergeNode in="OUTLINE"></feMergeNode>            <feMergeNode in="SourceGraphic"></feMergeNode>        </feMerge>            <feColorMatrix type="matrix" values="0   0   0   0   0                0   1   0   0   0                0   0   0   0   0                0   0   0   1   0 "></feColorMatrix>    </filter></defs></svg>